<svg id="visual" viewBox="0 0 900 600" width="900" height="600" xmlns="http://www.w3.org/2000/svg" xmlns:xlink="http://www.w3.org/1999/xlink" version="1.1"><rect x="0" y="0" width="900" height="600" fill="#001220"></rect>
<path d="M0 382L21.5 377.8C43 373.7 86 365.3 128.8 370.2C171.7 375 214.3 393 257.2 397.5C300 402 343 393 385.8 399C428.7 405 471.3 426 514.2 427.2C557 428.3 600 409.7 642.8 396.5C685.7 383.3 728.3 375.7 771.2 382.3C814 389 857 410 878.5 420.5L900 431L900 601L878.5 601C857 601 814 601 771.2 601C728.3 601 685.7 601 642.8 601C600 601 557 601 514.2 601C471.3 601 428.7 601 385.8 601C343 601 300 601 257.2 601C214.3 601 171.7 601 128.8 601C86 601 43 601 21.5 601L0 601Z" fill="#ec407a"></path>
<path d="M0 404L21.5 410.8C43 417.7 86 431.3 128.8 430.7C171.7 430 214.3 415 257.2 419.2C300 423.3 343 446.7 385.8 451C428.7 455.3 471.3 440.7 514.2 441.5C557 442.3 600 458.7 642.8 467C685.7 475.3 728.3 475.7 771.2 469.2C814 462.7 857 449.3 878.5 442.7L900 436L900 601L878.5 601C857 601 814 601 771.2 601C728.3 601 685.7 601 642.8 601C600 601 557 601 514.2 601C471.3 601 428.7 601 385.8 601C343 601 300 601 257.2 601C214.3 601 171.7 601 128.8 601C86 601 43 601 21.5 601L0 601Z" fill="#e23976"></path>
<path d="M0 447L21.5 454.3C43 461.7 86 476.3 128.8 478.3C171.7 480.3 214.3 469.7 257.2 461.2C300 452.7 343 446.3 385.8 450.2C428.7 454 471.3 468 514.2 475.5C557 483 600 484 642.8 481.8C685.7 479.7 728.3 474.3 771.2 474.7C814 475 857 481 878.5 484L900 487L900 601L878.5 601C857 601 814 601 771.2 601C728.3 601 685.7 601 642.8 601C600 601 557 601 514.2 601C471.3 601 428.7 601 385.8 601C343 601 300 601 257.2 601C214.3 601 171.7 601 128.8 601C86 601 43 601 21.5 601L0 601Z" fill="#d93271"></path>
<path d="M0 512L21.5 512C43 512 86 512 128.8 514.3C171.7 516.7 214.3 521.3 257.2 520C300 518.7 343 511.3 385.8 512.3C428.7 513.3 471.3 522.7 514.2 524C557 525.3 600 518.7 642.8 515.7C685.7 512.7 728.3 513.3 771.2 508.7C814 504 857 494 878.5 489L900 484L900 601L878.5 601C857 601 814 601 771.2 601C728.3 601 685.7 601 642.8 601C600 601 557 601 514.2 601C471.3 601 428.7 601 385.8 601C343 601 300 601 257.2 601C214.3 601 171.7 601 128.8 601C86 601 43 601 21.5 601L0 601Z" fill="#cf2b6d"></path>
<path d="M0 574L21.5 566C43 558 86 542 128.8 541.8C171.7 541.7 214.3 557.3 257.2 563.7C300 570 343 567 385.8 565.3C428.7 563.7 471.3 563.3 514.2 558.8C557 554.3 600 545.7 642.8 544.3C685.7 543 728.3 549 771.2 551.3C814 553.7 857 552.3 878.5 551.7L900 551L900 601L878.5 601C857 601 814 601 771.2 601C728.3 601 685.7 601 642.8 601C600 601 557 601 514.2 601C471.3 601 428.7 601 385.8 601C343 601 300 601 257.2 601C214.3 601 171.7 601 128.8 601C86 601 43 601 21.5 601L0 601Z" fill="#c62368"></path></svg>