<svg id="visual" viewBox="0 0 900 600" width="900" height="600" xmlns="http://www.w3.org/2000/svg" xmlns:xlink="http://www.w3.org/1999/xlink" version="1.1"><rect x="0" y="0" width="900" height="600" fill="#001220"></rect><path d="M0 441L21.5 431.3C43 421.7 86 402.3 128.8 397.8C171.7 393.3 214.3 403.7 257.2 410.7C300 417.7 343 421.3 385.8 419.2C428.7 417 471.3 409 514.2 408.3C557 407.7 600 414.3 642.8 411.3C685.7 408.3 728.3 395.7 771.2 384.2C814 372.7 857 362.3 878.5 357.2L900 352L900 601L878.5 601C857 601 814 601 771.2 601C728.3 601 685.7 601 642.8 601C600 601 557 601 514.2 601C471.3 601 428.7 601 385.8 601C343 601 300 601 257.2 601C214.3 601 171.7 601 128.8 601C86 601 43 601 21.5 601L0 601Z" fill="#ec407a"></path><path d="M0 421L21.5 421.5C43 422 86 423 128.8 432C171.7 441 214.3 458 257.2 453.7C300 449.3 343 423.7 385.8 414C428.7 404.3 471.3 410.7 514.2 410.8C557 411 600 405 642.8 414.3C685.7 423.7 728.3 448.3 771.2 452.8C814 457.3 857 441.7 878.5 433.8L900 426L900 601L878.5 601C857 601 814 601 771.2 601C728.3 601 685.7 601 642.8 601C600 601 557 601 514.2 601C471.3 601 428.7 601 385.8 601C343 601 300 601 257.2 601C214.3 601 171.7 601 128.8 601C86 601 43 601 21.5 601L0 601Z" fill="#e23976"></path><path d="M0 479L21.5 482.2C43 485.3 86 491.7 128.8 490.8C171.7 490 214.3 482 257.2 475.3C300 468.7 343 463.3 385.8 466.7C428.7 470 471.3 482 514.2 483.3C557 484.7 600 475.3 642.8 475.2C685.7 475 728.3 484 771.2 486.2C814 488.3 857 483.7 878.5 481.3L900 479L900 601L878.5 601C857 601 814 601 771.2 601C728.3 601 685.7 601 642.8 601C600 601 557 601 514.2 601C471.3 601 428.7 601 385.8 601C343 601 300 601 257.2 601C214.3 601 171.7 601 128.8 601C86 601 43 601 21.5 601L0 601Z" fill="#d93271"></path><path d="M0 512L21.5 507.7C43 503.3 86 494.7 128.8 496.2C171.7 497.7 214.3 509.3 257.2 514.3C300 519.3 343 517.7 385.8 517.5C428.7 517.3 471.3 518.7 514.2 516.5C557 514.3 600 508.7 642.8 505.7C685.7 502.7 728.3 502.3 771.2 505.5C814 508.7 857 515.3 878.5 518.7L900 522L900 601L878.5 601C857 601 814 601 771.2 601C728.3 601 685.7 601 642.8 601C600 601 557 601 514.2 601C471.3 601 428.7 601 385.8 601C343 601 300 601 257.2 601C214.3 601 171.7 601 128.8 601C86 601 43 601 21.5 601L0 601Z" fill="#cf2b6d"></path><path d="M0 547L21.5 544.3C43 541.7 86 536.3 128.8 540C171.7 543.7 214.3 556.3 257.2 560.3C300 564.3 343 559.7 385.8 560C428.7 560.3 471.3 565.7 514.2 564C557 562.3 600 553.7 642.8 552.2C685.7 550.7 728.3 556.3 771.2 555.8C814 555.3 857 548.7 878.5 545.3L900 542L900 601L878.5 601C857 601 814 601 771.2 601C728.3 601 685.7 601 642.8 601C600 601 557 601 514.2 601C471.3 601 428.7 601 385.8 601C343 601 300 601 257.2 601C214.3 601 171.7 601 128.8 601C86 601 43 601 21.5 601L0 601Z" fill="#c62368"></path></svg>