<svg id="visual" viewBox="0 0 900 600" width="900" height="600" xmlns="http://www.w3.org/2000/svg" xmlns:xlink="http://www.w3.org/1999/xlink" version="1.1"><g transform="translate(450.04924053839477 318.38838537005347)"><path d="M116.3 -207.8C132.6 -192 115.2 -124.3 108.9 -81C102.6 -37.7 107.3 -18.8 114.8 4.3C122.3 27.5 132.6 55 135.3 92.1C138.1 129.2 133.3 175.9 109.5 174.8C85.7 173.7 42.8 124.9 0.2 124.6C-42.5 124.3 -85 172.6 -106.9 172.6C-128.9 172.6 -130.3 124.3 -133 87.5C-135.8 50.7 -139.9 25.3 -128.8 6.4C-117.7 -12.5 -91.3 -25 -75.2 -38.7C-59.1 -52.4 -53.3 -67.3 -42.5 -86.3C-31.7 -105.2 -15.8 -128.1 17.1 -157.7C50 -187.3 100 -223.5 116.3 -207.8" fill="#BB004B"></path></g></svg>